<svg width="96" height="96" viewBox="0 0 96 96" fill="none" xmlns="http://www.w3.org/2000/svg">
<path d="M42.1053 4.92867C42.1053 2.20664 44.3135 0 47.0376 0C49.7616 0 51.9699 2.20664 51.9699 4.92867V15.2669C51.9699 17.9889 49.7616 20.1955 47.0376 20.1955C44.3135 20.1955 42.1053 17.9889 42.1053 15.2669V4.92867Z" fill="#C7C8CA"/>
<path d="M75.4065 15.0631C77.3327 13.1383 80.4556 13.1383 82.3818 15.0631C84.308 16.9879 84.308 20.1085 82.3818 22.0333L75.0662 29.3435C73.14 31.2683 70.017 31.2683 68.0908 29.3435C66.1646 27.4187 66.1646 24.2981 68.0908 22.3733L75.4065 15.0631Z" fill="#C7C8CA"/>
<path d="M91.0677 42.074C93.7917 42.074 96 44.2806 96 47.0027C96 49.7247 93.7917 51.9313 91.0677 51.9313H80.7218C77.9978 51.9313 75.7895 49.7247 75.7895 47.0027C75.7895 44.2806 77.9978 42.074 80.7218 42.074H91.0677Z" fill="#C7C8CA"/>
<path d="M4.93233 51.9313C2.20828 51.9313 0 49.7247 0 47.0027C0 44.2806 2.20828 42.074 4.93233 42.074H15.2782C18.0022 42.074 20.2105 44.2806 20.2105 47.0027C20.2105 49.7247 18.0022 51.9313 15.2782 51.9313H4.93233Z" fill="#C7C8CA"/>
<path d="M13.5929 21.9956C11.6668 20.0708 11.6668 16.9502 13.5929 15.0254C15.5191 13.1006 18.6421 13.1006 20.5683 15.0254L27.8839 22.3356C29.8101 24.2604 29.8101 27.381 27.8839 29.3058C25.9578 31.2306 22.8348 31.2306 20.9086 29.3058L13.5929 21.9956Z" fill="#C7C8CA"/>
<path d="M42.3459 80.4215C42.3459 77.6994 44.5541 75.4928 47.2782 75.4928C50.0022 75.4928 52.2105 77.6994 52.2105 80.4215V90.7596C52.2105 93.4817 50.0022 95.6883 47.2782 95.6883C44.5541 95.6883 42.3459 93.4817 42.3459 90.7596V80.4215Z" fill="#C7C8CA"/>
<path d="M68.2095 73.4461C66.2833 71.5213 66.2833 68.4007 68.2095 66.4759C70.1357 64.5511 73.2587 64.5511 75.1849 66.4759L82.5005 73.7861C84.4267 75.7109 84.4267 78.8315 82.5005 80.7563C80.5743 82.6811 77.4513 82.6811 75.5251 80.7563L68.2095 73.4461Z" fill="#C7C8CA"/>
<path d="M20.9086 66.4759C22.8348 64.5511 25.9578 64.5511 27.884 66.4759C29.8101 68.4007 29.8101 71.5213 27.884 73.4461L20.5683 80.7563C18.6421 82.681 15.5191 82.6811 13.593 80.7563C11.6668 78.8315 11.6668 75.7109 13.593 73.7861L20.9086 66.4759Z" fill="#C7C8CA"/>
<path d="M36.3985 43.9974C36.3484 43.3713 36.1134 42.8829 35.6936 42.5323C35.2801 42.1817 34.6504 42.0064 33.8045 42.0064C33.2657 42.0064 32.8239 42.0721 32.4793 42.2036C32.141 42.3288 31.8904 42.501 31.7274 42.7201C31.5645 42.9393 31.48 43.1897 31.4737 43.4715C31.4612 43.7031 31.5019 43.9129 31.5959 44.1007C31.6961 44.2823 31.8528 44.4482 32.0658 44.5984C32.2788 44.7424 32.5514 44.8739 32.8835 44.9929C33.2155 45.1118 33.6103 45.2183 34.0677 45.3122L35.6466 45.6503C36.7118 45.8757 37.6234 46.1731 38.3816 46.5425C39.1397 46.9119 39.76 47.347 40.2425 47.8479C40.7249 48.3425 41.0789 48.8998 41.3045 49.5196C41.5363 50.1394 41.6554 50.8156 41.6617 51.5482C41.6554 52.8129 41.339 53.8835 40.7124 54.7601C40.0858 55.6366 39.1899 56.3034 38.0244 56.7605C36.8653 57.2175 35.4712 57.446 33.8421 57.446C32.1692 57.446 30.7093 57.1987 29.4624 56.7041C28.2218 56.2095 27.2569 55.4488 26.5677 54.422C25.8847 53.3889 25.5401 52.0678 25.5338 50.4588H30.4962C30.5276 51.0473 30.6748 51.5419 30.938 51.9426C31.2011 52.3433 31.5708 52.647 32.047 52.8536C32.5294 53.0602 33.1028 53.1635 33.7669 53.1635C34.3246 53.1635 34.7914 53.0946 35.1673 52.9569C35.5432 52.8192 35.8283 52.6282 36.0226 52.384C36.2168 52.1398 36.317 51.8612 36.3233 51.5482C36.317 51.2539 36.2199 50.9972 36.032 50.7781C35.8503 50.5527 35.5495 50.3523 35.1297 50.177C34.7099 49.9954 34.1429 49.8264 33.4286 49.6699L31.5113 49.2566C29.807 48.8872 28.463 48.2705 27.4793 47.4065C26.5019 46.5362 26.0163 45.3498 26.0226 43.8471C26.0163 42.6262 26.3421 41.5587 27 40.6446C27.6642 39.7242 28.5821 39.0074 29.7538 38.494C30.9317 37.9806 32.282 37.7239 33.8045 37.7239C35.3584 37.7239 36.7024 37.9837 37.8365 38.5034C38.9706 39.023 39.8446 39.7556 40.4586 40.701C41.0789 41.6401 41.3922 42.7389 41.3985 43.9974H36.3985Z" fill="#0033CC"/>
<path d="M56.1494 44.3355C56.068 44.0037 55.9395 43.7125 55.7641 43.4621C55.5887 43.2054 55.3694 42.9894 55.1062 42.8141C54.8493 42.6325 54.5486 42.4979 54.2039 42.4102C53.8656 42.3163 53.4928 42.2693 53.0855 42.2693C52.2083 42.2693 51.4596 42.4791 50.8393 42.8986C50.2253 43.3181 49.7553 43.9223 49.4295 44.7111C49.11 45.5 48.9502 46.4517 48.9502 47.5662C48.9502 48.6931 49.1037 49.6573 49.4107 50.4588C49.7177 51.2602 50.1751 51.8737 50.7829 52.2995C51.3907 52.7252 52.1457 52.9381 53.0479 52.9381C53.8437 52.9381 54.5047 52.8223 55.031 52.5906C55.5636 52.359 55.9615 52.0303 56.2246 51.6045C56.4878 51.1788 56.6194 50.6779 56.6194 50.1019L57.5216 50.1958H53.1231V46.4767H61.657V49.1439C61.657 50.897 61.2841 52.3965 60.5385 53.6425C59.7992 54.8822 58.7779 55.8338 57.4746 56.4975C56.1776 57.1549 54.6895 57.4836 53.0103 57.4836C51.1369 57.4836 49.4922 57.086 48.0761 56.2909C46.6601 55.4957 45.5542 54.3625 44.7585 52.8912C43.969 51.4198 43.5742 49.6699 43.5742 47.6413C43.5742 46.051 43.8155 44.6423 44.2979 43.4151C44.7867 42.188 45.4633 41.1518 46.328 40.3065C47.1927 39.455 48.192 38.8133 49.3261 38.3813C50.4602 37.943 51.6758 37.7239 52.9727 37.7239C54.1131 37.7239 55.172 37.8866 56.1494 38.2122C57.1331 38.5315 58.0009 38.9886 58.7528 39.5834C59.511 40.1719 60.1219 40.87 60.5855 41.6777C61.0492 42.4854 61.3311 43.3713 61.4314 44.3355H56.1494Z" fill="#0033CC"/>
<path d="M69.3191 37.9868V57.2206H64.0935V37.9868H69.3191Z" fill="#0033CC"/>
</svg>
