<?xml version="1.0"?>
<svg width="960" height="960" xmlns="http://www.w3.org/2000/svg" xmlns:svg="http://www.w3.org/2000/svg">
 <g class="layer">
  <title>Layer 1</title>
  <path d="m532.69,371.92l0,-241.92l297.31,0l0,241.92l-297.31,0zm-382.69,110.77l0,-352.69l297.31,0l0,352.69l-297.31,0zm382.69,327.31l0,-352.69l297.31,0l0,352.69l-297.31,0zm-382.69,0l0,-241.92l297.31,0l0,241.92l-297.31,0zm45.38,-372.69l206.54,0l0,-261.93l-206.54,0l0,261.93zm382.7,327.31l206.54,0l0,-261.93l-206.54,0l0,261.93zm0,-438.08l206.54,0l0,-151.16l-206.54,0l0,151.16zm-382.7,438.08l206.54,0l0,-151.16l-206.54,0l0,151.16zm206.54,-327.31zm176.16,-110.77zm0,176.15zm-176.16,110.77z" fill="#fcb814" id="svg_1"/>
 </g>
</svg>